<svg xmlns="http://www.w3.org/2000/svg" viewBox="0 0 513.7 513.1">
  <circle cx="257" cy="256.6" r="256"/>
  <path fill="#7bcd0f" d="M263.8 16c125.1-.3 231.8 100.5 231.9 232.1.1 128.4-103.8 231.7-231.7 232-127.2.3-231.2-103.2-232-231C31.2 119.8 136.8 15.5 263.8 16zm35.5 120c.3-10.6-.7-21-3.2-31.2-3-12.3-7.2-24-16.2-33.2-7.8-8-15.1-9.3-25.4-4.7-15.4 6.9-25.7 19.2-34.4 33.1-13 20.7-19.7 43.6-22.7 67.6-2.8 22.7-2.7 45.2 6.7 66.7 1 2.2 1.4 4.5.5 6.8-1.7 4.4.7 4.5 3.9 3.8 1.5-.3 2.9-.7 4.3-1.1 17.4-5.6 35.3-8 53.6-7.4 4.9.2 8.6-.4 8.6-6.6 0-1.5 1-3.1 1.8-4.6 15.1-27.9 22-57.7 22.5-89.2zm84.2 122.6c-1.8-4.3-4.6-6.2-7-8.3-2.3-2-2.8-3.9-.8-6.4.9-1.2 1.7-2.5 2.6-3.7 24.1-32 31.8-68.3 27.7-107.5-1.3-12.8-4.5-25.2-11.2-36.5-7.7-13.2-19.2-16.5-32.7-9.4-11.3 5.9-18.9 15.6-25.9 25.8-14.8 21.4-21.5 45.6-23 71.3-.9 15.3-.8 30.6 2.8 45.7 1.3 5.2 3.9 8.3 9.4 9.7 8.5 2.3 16.9 5.2 25.2 8 10.6 3.6 21.1 7.2 32.9 11.3zm-77.4 70.5c-10.5.3-22.9-.7-35.4-2-31.2-3.4-61.2-11.2-89.5-24.8-9.1-4.4-9.3-4.8-8.5-14.9.1-2 1.2-4.5-1.2-5.9-2.3-1.3-4.5-.1-6.6.9-16.5 8.2-13.6 32.3-5.8 41.6 2.3 2.7 3.9 1 5.6-1 5.2-5.8 6.6-6.4 13.3-3.7 28.7 11.4 58.4 18 89.1 21.3 38.7 4.1 77.1 3 115.3-5 3.9-.8 7.5-1.2 10.7 1.7 3.4 3.1 6.2 1.6 8.4-1.3 6.1-8.2 7.9-17.5 5.6-27.4-.8-3.5-3.2-4-5.9-1.5-1.1 1-1.9 2.3-2.9 3.4-4.4 4.7-8.3 10.2-15.2 11.5-24.8 4.4-49.8 7.3-77 7.1zM57.8 209.9c-6.5 19.5-5.1 39.7-4.3 59.7 1.4 37.6 15 71 36.6 101.4 17.1 24 38.4 43.2 64.1 57.6 30.9 17.2 68.6 30.2 81.3 27.8-2-1.3-3.8-2.8-5.9-3.6a336 336 0 01-46.2-21.9c-11.1-6.5-21.6-13.4-31.7-21.1a241.68 241.68 0 01-52.3-54.5c-9.7-13.9-18.4-28.3-25-43.9-12.9-30.6-17.7-62.6-15.5-95.7.1-2 .8-4-1.1-5.8z"/>
  <path fill="#020201" d="M299.3 136c-.5 31.5-7.4 61.3-22.5 89.1-.8 1.4-1.8 3.1-1.8 4.6 0 6.2-3.6 6.8-8.6 6.6-18.3-.6-36.2 1.9-53.6 7.4-1.4.5-2.9.8-4.3 1.1-3.2.7-5.6.6-3.9-3.8.9-2.3.4-4.6-.5-6.8-9.4-21.5-9.5-44.1-6.7-66.7 3-24 9.7-46.9 22.7-67.6 8.7-13.8 19-26.2 34.4-33.1 10.2-4.6 17.6-3.3 25.4 4.7 9 9.3 13.2 21 16.2 33.2 2.5 10.3 3.5 20.8 3.2 31.3zM255 228.8c8.7 1.9 9.7 1.6 14.7-5.3 1.1-1.5 2.2-3 3-4.6 17.8-33.1 24.8-68.3 19.2-105.6-1.5-9.7-4.6-19.1-10.8-27-8.1-10.4-17.5-12.3-29-5.7-10.5 6-18.3 14.9-24.5 25.1-13.6 21.8-19.6 46-21.5 71.3-1.2 16.8-1 33.5 5.9 49.4 1.1 2.6 2.3 4.9 5 6.9-.2-14-.5-27.3 2.2-40.7 2.7-13.3 7.9-24.7 18.5-33.3 8.2-6.6 15-5.4 20 3.9 4.5 8.3 5.6 17.3 5.4 26.6-.1 5.3-2 9.6-5.8 13.3-4.3 4-9.4 6.8-14.4 9.8-1.4.9-3.3 1.7-2.8 3.6.4 2 2.3 2.7 4.3 2.8 1 .1 2 .1 3 0 10.5-.5 10.5-.5 7.6 9.5zm128.5 29.8c-11.8-4-22.3-7.7-32.8-11.2-8.4-2.8-16.7-5.7-25.2-8-5.4-1.4-8.1-4.6-9.4-9.7-3.7-15.1-3.7-30.4-2.8-45.7 1.5-25.7 8.2-49.8 23-71.3 7-10.2 14.6-19.9 25.9-25.8 13.5-7.1 24.9-3.8 32.7 9.4 6.6 11.3 9.8 23.7 11.2 36.5 4.1 39.2-3.6 75.5-27.7 107.5-.9 1.2-1.6 2.5-2.6 3.7-2 2.4-1.6 4.3.8 6.4 2.3 2 5.1 3.8 6.9 8.2zm-50-24.7c-2.3-11.3-1.8-22.1-.3-32.9 1.9-13.4 8.1-24.5 18-33.4 8-7.2 15.3-5.4 19.8 4.5 3.6 8.1 4.3 16.7 3.8 25.4-.3 4.9-2.4 8.9-6.3 12-3.7 3-7.7 5.3-11.9 7.6-1.7.9-4.1 1.7-3.7 4.1.4 2.9 3.1 2.5 5.2 2.7 2.3.1 4.7.1 7-.2 4.5-.6 4.6 1.4 2.8 4.5-1.8 3.4-3.8 6.6-5.6 10-.7 1.3-2.9 2.6-.8 4.2 1.7 1.4 3.9 2.1 6 .6 1.3-1 2.5-2.2 3.7-3.3 5.4-5.5 10-11.7 13.7-18.4 16.7-29.9 20.1-62 14.7-95.3-1.4-8.4-3.8-16.6-8.7-23.7-5.6-8.2-12.8-10.5-22.3-7.5-7.4 2.3-13.2 7.1-18.1 12.8-12.9 14.8-20.7 32.1-25 51-4.9 21.5-6.6 43.1-1.3 64.8 1.1 5.1 3 9.2 9.3 10.5zm-27.4 95.2c27.3.2 52.2-2.7 77-7.3 6.9-1.3 10.8-6.8 15.2-11.5 1-1.1 1.8-2.4 2.9-3.4 2.7-2.5 5-2 5.9 1.5 2.3 9.9.5 19.2-5.6 27.4-2.2 3-5 4.4-8.4 1.3-3.1-2.9-6.8-2.5-10.7-1.7-38.1 8-76.5 9.2-115.3 5-30.6-3.3-60.4-9.9-89.1-21.3-6.7-2.7-8.2-2.1-13.3 3.7-1.7 1.9-3.3 3.7-5.6 1-7.8-9.3-10.7-33.4 5.8-41.6 2.1-1.1 4.3-2.3 6.6-.9 2.4 1.4 1.3 3.9 1.2 5.9-.7 10.2-.6 10.5 8.5 14.9 28.3 13.7 58.3 21.4 89.5 24.8 12.5 1.5 24.9 2.5 35.4 2.2zM57.8 209.9c1.9 1.8 1.3 3.8 1.1 5.7-2.2 33.1 2.6 65.1 15.5 95.7 6.6 15.6 15.3 29.9 25 43.9 14.7 21 32.1 39.1 52.3 54.5 10.1 7.7 20.6 14.7 31.7 21.1 14.9 8.7 30.3 15.7 46.2 21.9 2.1.8 3.9 2.3 5.9 3.6-12.7 2.4-50.4-10.6-81.3-27.8a193.5 193.5 0 01-64.1-57.6c-21.6-30.4-35.2-63.8-36.6-101.4-.8-19.9-2.2-40.1 4.3-59.6z"/>
  <path fill="#fdfdfd" d="M255 228.8c2.9-9.9 2.9-9.9-7.6-9.5h-3c-2-.1-3.8-.8-4.3-2.8-.4-1.9 1.4-2.8 2.8-3.6 5-3 10.1-5.8 14.4-9.8 3.9-3.6 5.7-7.9 5.8-13.3.2-9.3-.9-18.3-5.4-26.6-5.1-9.3-11.8-10.5-20-3.9-10.7 8.6-15.9 20-18.5 33.3-2.7 13.4-2.3 26.7-2.2 40.7-2.7-2-3.9-4.3-5-6.9-6.9-15.9-7.1-32.6-5.9-49.4 1.9-25.4 7.9-49.6 21.4-71.5 6.3-10.2 14-19.1 24.5-25.1 11.5-6.6 20.8-4.7 29 5.7 6.2 7.9 9.4 17.3 10.8 27 5.6 37.3-1.4 72.5-19.2 105.6-.9 1.6-1.9 3.1-3 4.6-4.9 7-5.9 7.4-14.6 5.5zm78.5 5.1c-6.2-1.3-8.2-5.4-9.4-10.4-5.2-21.7-3.5-43.3 1.3-64.8 4.3-18.9 12.1-36.3 25-51 5-5.7 10.7-10.5 18.1-12.8 9.5-3 16.7-.7 22.3 7.5 4.9 7.1 7.3 15.3 8.7 23.7 5.5 33.3 2 65.4-14.7 95.3-3.7 6.7-8.3 12.9-13.7 18.4-1.2 1.2-2.4 2.4-3.7 3.3-2.1 1.5-4.3.8-6-.6-2-1.6.2-2.9.8-4.2 1.8-3.4 3.8-6.7 5.6-10 1.7-3.1 1.6-5.1-2.8-4.5-2.3.3-4.7.3-7 .2-2.1-.1-4.8.2-5.2-2.7-.4-2.5 2-3.2 3.7-4.1 4.2-2.2 8.2-4.6 11.9-7.6 3.9-3.1 6-7.1 6.3-12 .5-8.7-.2-17.4-3.8-25.4-4.5-9.9-11.7-11.8-19.8-4.5-9.9 8.9-16.1 20-18 33.4-1.5 10.7-1.9 21.5.4 32.8z"/>
</svg>
