<svg xmlns="http://www.w3.org/2000/svg" viewBox="0 0 20 20">
  <g fill="currentColor">
    <path d="M10 8a2 2 0 100 4 2 2 0 000-4z"/>
    <path fill-rule="evenodd" d="M9 2h2a2.01 2.01 0 001.235 1.855l.53.22a2.01 2.01 0 002.185-.439l1.414 1.414a2.01 2.01 0 00-.439 2.185l.22.53A2.01 2.01 0 0018 9v2a2.01 2.01 0 00-1.855 1.235l-.22.53a2.01 2.01 0 00.44 2.185l-1.415 1.414a2.01 2.01 0 00-2.184-.439l-.531.22A2.01 2.01 0 0011 18H9a2.01 2.01 0 00-1.235-1.854l-.53-.22a2.009 2.009 0 00-2.185.438L3.636 14.95a2.009 2.009 0 00.438-2.184l-.22-.531A2.01 2.01 0 002 11V9c.809 0 1.545-.487 1.854-1.235l.22-.53a2.009 2.009 0 00-.438-2.185L5.05 3.636a2.01 2.01 0 002.185.438l.53-.22A2.01 2.01 0 009 2zm-4 8l1.464 3.536L10 15l3.535-1.464L15 10l-1.465-3.536L10 5 6.464 6.464 5 10z" clip-rule="evenodd"/>
  </g>
</svg>
